HIERARCHY
ROOT Hips
{
	OFFSET 0.000000 0.000000 0.000000 
	CHANNELS 6 Xposition Yposition Zposition Zrotation Yrotation Xrotation
	JOINT LeftUpLeg
	{
		OFFSET 1.363060 -1.794630 0.839290 
		CHANNELS 3 Zrotation Yrotation Xrotation
		JOINT LeftLeg
		{
			OFFSET 2.448110 -6.726130 0.000000 
			CHANNELS 3 Zrotation Yrotation Xrotation
			JOINT LeftFoot
			{
				OFFSET 2.562200 -7.039590 0.000000 
				CHANNELS 3 Zrotation Yrotation Xrotation
				JOINT LeftToeBase
				{
					OFFSET 0.157640 -0.433110 2.322550 
					CHANNELS 3 Zrotation Yrotation Xrotation
					End Site
					{
						OFFSET 0.000000 0.000000 0.000000 
					}
				}
			}
		}
	}
	JOINT RightUpLeg
	{
		OFFSET -1.305520 -1.794630 0.839290 
		CHANNELS 3 Zrotation Yrotation Xrotation
		JOINT RightLeg
		{
			OFFSET -2.542530 -6.985550 0.000000 
			CHANNELS 3 Zrotation Yrotation Xrotation
			JOINT RightFoot
			{
				OFFSET -2.568260 -7.056230 0.000000 
				CHANNELS 3 Zrotation Yrotation Xrotation
				JOINT RightToeBase
				{
					OFFSET -0.164730 -0.452590 2.363150 
					CHANNELS 3 Zrotation Yrotation Xrotation
					End Site
					{
						OFFSET 0.000000 0.000000 0.000000 
					}
				}
			}
		}
	}
	JOINT Spine
	{
		OFFSET 0.028270 2.035590 -0.193380 
		CHANNELS 3 Zrotation Yrotation Xrotation
		JOINT Spine1
		{
			OFFSET 0.056720 2.048850 -0.042750 
			CHANNELS 3 Zrotation Yrotation Xrotation
			JOINT Neck1
			{
				OFFSET -0.054170 1.746240 0.172020 
				CHANNELS 3 Zrotation Yrotation Xrotation
				JOINT Head
				{
					OFFSET 0.104070 1.761360 -0.123970 
					CHANNELS 3 Zrotation Yrotation Xrotation
					End Site
					{
						OFFSET 0.000000 0.000000 0.000000 
					}
				}
			}
			JOINT LeftArm
			{
				OFFSET 3.362410 1.200890 -0.311210 
				CHANNELS 3 Zrotation Yrotation Xrotation
				JOINT LeftForeArm
				{
					OFFSET 4.983000 -0.000000 -0.000000 
					CHANNELS 3 Zrotation Yrotation Xrotation
					JOINT LeftHand
					{
						OFFSET 3.483560 -0.000000 -0.000000 
						CHANNELS 3 Zrotation Yrotation Xrotation
						JOINT LeftHandIndex1
						{
							OFFSET 0.715260 -0.000000 -0.000000 
							CHANNELS 3 Zrotation Yrotation Xrotation
							End Site
							{
								OFFSET 0.000000 0.000000 0.000000 
							}
						}
					}
				}
			}
			JOINT RightArm
			{
				OFFSET -3.136600 1.374050 -0.404650 
				CHANNELS 3 Zrotation Yrotation Xrotation
				JOINT RightForeArm
				{
					OFFSET -5.241900 -0.000000 -0.000000 
					CHANNELS 3 Zrotation Yrotation Xrotation
					JOINT RightHand
					{
						OFFSET -3.444170 -0.000000 -0.000000 
						CHANNELS 3 Zrotation Yrotation Xrotation
						JOINT RightHandIndex1
						{
							OFFSET -0.622530 -0.000000 -0.000000 
							CHANNELS 3 Zrotation Yrotation Xrotation
							End Site
							{
								OFFSET 0.000000 0.000000 0.000000 
							}
						}
					}
				}
			}
		}
	}
}
MOTION
Frames: 10
Frame Time: 0.041667
-5.858066 17.878664 -28.984837 -0.158897 -5.183198 6.689676 -11.863249 10.685912 -28.122077 5.078274 14.110569 43.246803 0.747101 -0.415269 -1.811036 1.592700 -7.960400 -22.593900 11.384078 -0.272807 -21.296850 -3.038276 -12.169952 36.225359 0.649031 -6.775984 -15.459096 -0.127800 2.304100 -6.347000 2.105652 -1.009365 -3.898244 -5.037611 -0.251947 3.403850 12.087649 -12.442200 -5.286653 7.123500 -5.775900 -0.945400 -87.454981 4.884198 7.124965 4.832133 -17.331046 -1.335634 -0.321265 -0.258580 1.023386 -7.125000 0.000000 0.000000 91.613256 1.226183 25.803580 -12.224850 24.349914 -2.773826 0.179131 -0.377708 2.952363 7.125000 0.000000 0.000000 
-5.864729 17.876409 -28.988630 -0.161142 -5.055811 6.743361 -11.956390 10.432253 -27.551821 4.787421 13.809475 42.117944 0.428749 0.840653 -2.605563 1.490700 -7.713200 -21.846400 11.395723 -0.299260 -21.364068 -3.049425 -12.193303 36.282448 0.658571 -6.832253 -15.532524 -0.129200 2.316900 -6.382300 2.109875 -1.060442 -3.874821 -5.053250 -0.271784 3.627784 12.152765 -12.451750 -5.378003 7.118000 -5.773400 -0.948900 -87.442451 4.785889 6.844589 4.747619 -17.189914 -1.313283 -0.323795 -0.256503 1.192628 -7.125000 0.000000 0.000000 91.600923 1.343226 25.960554 -12.555741 24.759285 -2.885636 0.193650 -0.379273 2.568470 7.125000 0.000000 0.000000 
-5.868522 17.875589 -28.984017 -0.169154 -5.169180 6.701204 -12.022759 10.316070 -26.864006 4.473692 13.483217 40.920120 0.312973 1.340577 -3.255316 1.248600 -7.084600 -19.966200 11.372438 -0.234858 -21.303965 -3.061657 -12.219184 36.343923 0.630917 -6.750385 -15.568755 -0.125700 2.285600 -6.295500 2.094899 -0.997342 -3.834163 -5.098733 -0.235112 3.838255 12.186320 -12.490029 -5.450083 7.077200 -5.782500 -0.919600 -87.377113 4.583800 6.602453 4.615401 -16.960548 -1.275418 -0.326850 -0.254413 1.385982 -7.125000 0.000000 0.000000 91.609556 1.444133 26.039614 -12.904264 25.186004 -3.004002 0.205779 -0.375405 2.290514 7.125000 0.000000 0.000000 
-5.874571 17.872821 -28.988323 -0.112231 -5.006222 6.767144 -12.123951 9.968906 -26.329493 4.162451 13.155395 39.743050 0.268648 1.561193 -3.712640 1.038400 -6.481100 -18.186800 11.329167 -0.258688 -21.393303 -3.074394 -12.239841 36.400393 0.634571 -6.791889 -15.660562 -0.118700 2.221200 -6.117400 2.126009 -1.122688 -3.874295 -4.943721 -0.306546 3.800589 12.224250 -12.434590 -5.511953 7.102700 -5.757500 -0.964400 -87.474253 4.686239 6.185179 4.527859 -16.819268 -1.254213 -0.327663 -0.253125 1.654086 -7.125000 0.000000 0.000000 91.491064 1.346163 26.302849 -13.304899 25.654196 -3.136850 0.218234 -0.363253 2.029079 7.125000 0.000000 0.000000 
-5.878876 17.872309 -28.989348 -0.075058 -5.008674 6.729865 -12.189153 9.725024 -25.684137 3.875542 12.839801 38.629906 0.226377 1.771028 -4.144389 0.875800 -5.966300 -16.686700 11.288513 -0.211143 -21.365182 -3.087794 -12.259560 36.460398 0.647246 -6.856322 -15.727301 -0.126400 2.291400 -6.311700 2.177530 -1.249916 -3.926954 -4.681978 -0.383639 3.665414 12.302160 -12.299910 -5.647990 7.186900 -5.695400 -1.070800 -87.686826 4.980595 5.733377 4.467922 -16.735304 -1.241236 -0.329865 -0.252935 1.844163 -7.125000 0.000000 0.000000 91.214953 1.082568 26.870682 -13.800730 26.227191 -3.303231 0.230955 -0.347390 1.634022 7.125000 0.000000 0.000000 
-5.880926 17.871181 -28.986682 -0.046793 -5.110852 6.600298 -12.253031 9.582651 -24.944914 3.627614 12.550348 37.632386 0.128991 2.175527 -4.697370 0.765500 -5.587200 -15.591300 11.233110 -0.135521 -21.230749 -3.104528 -12.286939 36.536580 0.626465 -6.809454 -15.799136 -0.122800 2.259400 -6.223000 2.191309 -1.279175 -3.937715 -4.572119 -0.404791 3.634956 12.420810 -12.182683 -5.706981 7.241800 -5.636100 -1.085300 -87.737377 5.073873 5.388827 4.380366 -16.590207 -1.217677 -0.334788 -0.249529 2.062200 -7.125000 0.000000 0.000000 91.123810 0.938462 27.147440 -14.247598 26.749208 -3.463127 0.244677 -0.343278 1.400455 7.125000 0.000000 0.000000 
-5.884309 17.868208 -28.990783 0.043013 -5.031190 6.566528 -12.401018 9.275636 -24.351369 3.413149 12.290498 36.759608 -0.043907 2.813042 -5.201734 0.757700 -5.559200 -15.510600 11.138059 -0.156419 -21.242181 -3.123395 -12.318309 36.617451 0.643563 -6.889293 -15.866057 -0.128400 2.309700 -6.362500 2.176298 -1.312145 -3.932184 -4.572017 -0.426496 3.691365 12.483735 -12.214101 -5.799860 7.249700 -5.651000 -1.112100 -87.601700 4.961987 5.265008 4.285079 -16.425915 -1.191971 -0.336077 -0.247213 2.254996 -7.125000 0.000000 0.000000 91.200431 0.905967 27.199435 -14.677051 27.252172 -3.619992 0.253444 -0.337249 1.180803 7.125000 0.000000 0.000000 
-5.887385 17.866978 -28.994473 0.146742 -4.970899 6.517363 -12.548348 8.972680 -23.771677 3.226322 12.058604 35.991541 -0.199899 3.384556 -5.700320 0.745500 -5.515300 -15.384400 11.031143 -0.092515 -21.202596 -3.141468 -12.345867 36.697317 0.654499 -6.969012 -15.998453 -0.124600 2.275900 -6.268800 2.191315 -1.390583 -3.951716 -4.417167 -0.476478 3.667170 12.676979 -12.121182 -5.969006 7.369500 -5.609400 -1.212900 -87.612195 4.967845 4.948400 4.168738 -16.232974 -1.161828 -0.339062 -0.244297 2.551924 -7.125000 0.000000 0.000000 91.146603 0.802722 27.348687 -15.071824 27.704433 -3.769285 0.270772 -0.331134 1.064342 7.125000 0.000000 0.000000 
-5.890050 17.866363 -29.001957 0.235142 -4.902944 6.530748 -12.669672 8.594832 -23.284721 3.057524 11.846599 35.300137 -0.303866 3.784732 -6.231682 0.637800 -5.109500 -14.221100 10.937958 -0.006829 -21.237170 -3.159881 -12.375756 36.781200 0.670195 -7.062616 -16.123229 -0.119200 2.226100 -6.131000 2.168422 -1.385802 -3.944822 -4.428106 -0.480006 3.737057 12.815403 -12.128822 -6.131645 7.408500 -5.612000 -1.260500 -87.392292 4.709133 4.889746 4.026667 -15.983079 -1.122964 -0.340406 -0.240717 2.806772 -7.125000 0.000000 0.000000 91.300924 0.807342 27.280494 -15.457540 28.150118 -3.916801 0.276236 -0.328574 0.853638 7.125000 0.000000 0.000000 
-5.891690 17.866158 -29.008005 0.293006 -4.838546 6.458646 -12.759182 8.242778 -22.756873 2.904310 11.648302 34.655089 -0.464679 4.363825 -6.736953 0.607200 -4.987700 -13.873500 10.871206 0.094011 -21.159123 -3.174667 -12.402413 36.855985 0.700150 -7.212869 -16.271763 -0.117900 2.213400 -6.095800 2.133912 -1.364967 -3.902028 -4.519749 -0.470713 3.882403 12.914773 -12.244262 -6.257599 7.415400 -5.666200 -1.274600 -87.115095 4.322961 4.897854 3.915157 -15.775719 -1.092920 -0.339270 -0.237596 3.036909 -7.125000 0.000000 0.000000 91.518658 0.936289 27.128112 -15.785058 28.529968 -4.046112 0.284478 -0.328684 0.758039 7.125000 0.000000 0.000000 
